<?xml version="1.0" standalone="no"?>
<!DOCTYPE svg PUBLIC "-//W3C//DTD SVG 20010904//EN"
 "http://www.w3.org/TR/2001/REC-SVG-20010904/DTD/svg10.dtd">
<svg version="1.0" xmlns="http://www.w3.org/2000/svg"
 width="72.000000pt" height="72.000000pt" viewBox="0 0 72.000000 72.000000"
 preserveAspectRatio="xMidYMid meet">

<g transform="translate(0.000000,72.000000) scale(0.100000,-0.100000)"
fill="#000000" stroke="none">
<path d="M365 622 c-43 -27 -105 -99 -105 -123 0 -38 30 -79 76 -102 42 -21
51 -33 93 -118 48 -98 84 -134 144 -146 15 -3 30 -9 33 -14 8 -13 -56 1 -96
21 -49 25 -75 56 -105 125 -38 88 -37 87 -89 115 -48 25 -75 59 -76 93 0 11
-5 17 -12 14 -20 -7 -11 -77 12 -102 12 -13 38 -30 59 -40 33 -14 43 -27 71
-91 40 -91 87 -137 167 -160 50 -15 61 -15 83 -3 36 21 36 52 -1 104 -26 36
-39 45 -63 46 l-31 1 28 11 c35 14 30 31 -11 35 -34 3 -35 22 -1 22 32 0 19
34 -16 41 l-30 6 28 7 c40 12 35 36 -9 36 -40 0 -38 15 4 25 19 4 32 15 40 38
15 41 1 57 -59 63 -109 12 -109 12 -108 47 l1 32 11 -27 c7 -17 18 -28 30 -28
17 0 19 5 13 32 -7 35 -23 58 -40 58 -6 0 -24 -8 -41 -18z"/>
<path d="M100 454 c0 -11 9 -14 37 -12 52 4 56 28 4 28 -30 0 -41 -4 -41 -16z"/>
<path d="M30 375 c0 -12 17 -15 91 -15 80 0 90 2 79 15 -18 22 -170 22 -170 0z"/>
<path d="M117 303 c-19 -18 2 -23 99 -23 94 0 105 2 94 15 -9 11 -34 15 -100
15 -47 0 -90 -3 -93 -7z"/>
<path d="M180 205 c0 -12 16 -15 85 -15 69 0 85 3 85 15 0 12 -16 15 -85 15
-69 0 -85 -3 -85 -15z"/>
<path d="M260 125 c0 -12 16 -15 81 -15 71 0 80 2 69 15 -9 11 -32 15 -81 15
-55 0 -69 -3 -69 -15z"/>
</g>
</svg>
