<?xml version="1.0" standalone="no"?>
<!DOCTYPE svg PUBLIC "-//W3C//DTD SVG 20010904//EN"
 "http://www.w3.org/TR/2001/REC-SVG-20010904/DTD/svg10.dtd">
<svg version="1.0" xmlns="http://www.w3.org/2000/svg"
 width="72.000000pt" height="72.000000pt" viewBox="0 0 72.000000 72.000000"
 preserveAspectRatio="xMidYMid meet">

<g transform="translate(0.000000,72.000000) scale(0.100000,-0.100000)"
fill="#000000" stroke="none">
<path d="M490 571 c-22 -33 -40 -62 -40 -65 0 -4 11 -6 25 -6 24 0 26 -2 19
-37 -10 -54 -31 -111 -58 -158 -36 -60 -127 -142 -198 -176 -51 -25 -56 -29
-28 -24 66 12 163 67 221 124 57 58 123 173 135 236 5 28 11 34 35 37 l28 3
-42 62 c-23 34 -45 62 -49 63 -4 0 -25 -27 -48 -59z"/>
<path d="M395 540 c-4 -6 -23 -7 -44 -4 -75 12 -142 -36 -212 -151 -16 -27
-32 -41 -48 -43 -32 -3 -57 -26 -70 -63 l-10 -29 29 15 c41 21 52 19 85 -15
29 -30 29 -30 12 -65 -19 -40 -18 -41 29 -19 22 11 36 26 40 43 3 14 7 31 9
37 2 6 28 25 57 42 94 53 145 132 131 203 -3 17 0 35 7 44 8 9 9 15 2 15 -6 0
-14 -5 -17 -10z m-85 -106 c32 -38 -36 -106 -74 -74 -22 17 -20 66 2 79 25 15
58 13 72 -5z"/>
<path d="M630 435 c0 -23 -48 -125 -75 -161 -23 -30 -25 -41 -25 -143 l0 -111
55 0 55 0 0 215 c0 118 -2 215 -5 215 -3 0 -5 -7 -5 -15z"/>
<path d="M40 204 c-18 -48 -5 -58 38 -28 28 19 28 34 0 26 -17 -4 -20 -2 -15
11 4 10 2 17 -4 17 -5 0 -14 -12 -19 -26z"/>
<path d="M433 113 c-29 -30 -53 -59 -53 -66 0 -6 25 14 56 44 31 31 55 61 53
67 -2 5 -28 -15 -56 -45z"/>
<path d="M390 120 c-9 -6 -10 -10 -3 -10 6 0 15 5 18 10 8 12 4 12 -15 0z"/>
<path d="M445 60 c-24 -25 -33 -40 -24 -40 19 0 72 55 67 70 -2 6 -21 -7 -43
-30z"/>
<path d="M278 77 c-30 -8 -38 -15 -38 -34 0 -21 4 -23 55 -23 l55 0 0 35 c0
39 -6 41 -72 22z"/>
<path d="M126 35 c-7 -19 3 -19 28 0 19 15 19 15 -1 15 -11 0 -23 -7 -27 -15z"/>
<path d="M185 30 c-3 -5 -1 -10 4 -10 6 0 11 5 11 10 0 6 -2 10 -4 10 -3 0 -8
-4 -11 -10z"/>
</g>
</svg>
