<?xml version="1.0" standalone="no"?>
<!DOCTYPE svg PUBLIC "-//W3C//DTD SVG 20010904//EN"
 "http://www.w3.org/TR/2001/REC-SVG-20010904/DTD/svg10.dtd">
<svg version="1.0" xmlns="http://www.w3.org/2000/svg"
 width="72.000000pt" height="72.000000pt" viewBox="0 0 72.000000 72.000000"
 preserveAspectRatio="xMidYMid meet">

<g transform="translate(0.000000,72.000000) scale(0.100000,-0.100000)"
fill="#000000" stroke="none">
<path d="M646 621 c-23 -15 -35 -17 -63 -9 -103 28 -223 -53 -312 -212 -35
-61 -40 -65 -78 -71 -23 -3 -49 -12 -59 -20 -18 -14 -66 -110 -59 -117 2 -2
23 8 48 22 24 14 49 26 55 26 17 0 83 -61 92 -84 5 -14 0 -36 -16 -68 -28 -55
-21 -58 43 -27 47 23 73 61 73 106 0 24 9 33 67 63 37 19 95 62 129 95 75 73
102 141 85 216 -8 36 -7 47 10 71 24 33 23 34 -15 9z m-148 -148 c30 -27 34
-54 12 -90 -38 -64 -122 -52 -128 18 -3 30 2 41 28 63 37 30 60 33 88 9z"/>
<path d="M131 156 c-6 -7 -17 -34 -25 -60 l-14 -46 26 6 c61 15 92 41 92 77 0
8 -4 7 -12 -1 -12 -12 -48 -17 -48 -6 0 3 5 14 10 25 8 15 7 19 -3 19 -8 0
-20 -6 -26 -14z"/>
</g>
</svg>
