<?xml version="1.0" standalone="no"?>
<!DOCTYPE svg PUBLIC "-//W3C//DTD SVG 20010904//EN"
 "http://www.w3.org/TR/2001/REC-SVG-20010904/DTD/svg10.dtd">
<svg version="1.0" xmlns="http://www.w3.org/2000/svg"
 width="72.000000pt" height="72.000000pt" viewBox="0 0 72.000000 72.000000"
 preserveAspectRatio="xMidYMid meet">

<g transform="translate(0.000000,72.000000) scale(0.100000,-0.100000)"
fill="#000000" stroke="none">
<path d="M562 588 c-37 -40 -38 -73 -4 -108 37 -37 61 -38 101 -4 40 33 44 94
9 118 -33 23 -81 20 -106 -6z"/>
<path d="M267 482 c-44 -46 -29 -79 21 -44 21 16 38 19 75 15 54 -6 59 -19 21
-54 -66 -62 -70 -116 -13 -188 l41 -51 -41 -49 c-39 -46 -40 -49 -22 -65 17
-16 22 -13 90 50 67 62 71 68 58 88 -7 11 -23 37 -34 56 l-22 35 60 66 59 67
-41 51 -41 51 -92 0 c-88 0 -93 -1 -119 -28z"/>
<path d="M90 455 c0 -11 13 -15 54 -15 35 0 58 5 66 15 11 13 4 15 -54 15 -52
0 -66 -3 -66 -15z"/>
<path d="M0 365 c0 -22 282 -22 300 0 11 13 -6 15 -144 15 -132 0 -156 -2
-156 -15z"/>
<path d="M552 357 l-22 -23 31 -18 c31 -18 32 -18 80 5 27 12 49 26 49 31 0
15 -26 19 -55 8 -24 -9 -32 -8 -41 4 -15 21 -17 20 -42 -7z"/>
<path d="M201 184 c-85 -106 -92 -118 -77 -132 14 -14 22 -9 93 58 43 41 87
82 97 91 14 13 17 22 9 31 -6 7 -14 26 -19 41 -9 28 -11 27 -103 -89z"/>
<path d="M22 278 c7 -21 191 -23 208 -3 11 13 0 15 -100 15 -85 0 -111 -3
-108 -12z"/>
<path d="M90 184 c0 -11 8 -14 32 -12 46 4 49 28 4 28 -26 0 -36 -4 -36 -16z"/>
</g>
</svg>
